<?xml version="1.0" encoding="UTF-8"?>
<svg id="Layer_1" data-name="Layer 1" xmlns="http://www.w3.org/2000/svg" viewBox="0 0 599.21 600">
  <defs>
    <style>
      .cls-1 {
        fill: #02d684;
      }
    </style>
  </defs>
  <g id="Layer_38" data-name="Layer 38">
    <path class="cls-1" d="M599.18,269.17c-.06-5.57-2.31-10.88-6.28-14.79l-60-53.72h0L313.85,5.33c-7.94-7.11-19.96-7.11-27.91,0L67.44,200.67h0L6.89,254.38c-3.94,3.64-6.38,8.61-6.84,13.95-.73,10.49,6.34,19.93,16.6,22.18,0,.59,30.44,.18,40.27,.04,1.64-.02,2.98,1.3,2.98,2.94v282.61c0,13.19,10.69,23.87,23.87,23.87H222.46c11.55,.39,21.23-8.67,21.61-20.22,0-.24,.01-.47,.01-.71v-170.63c0-1.63,1.32-2.94,2.94-2.94h107.13c1.63,0,2.94,1.32,2.94,2.94v167.68c0,13.19,10.69,23.87,23.87,23.87h134.47c13.19,0,23.87-10.69,23.87-23.87V293.88c0-1.63,1.32-2.94,2.94-2.94h39.96c.23,0,.47-.02,.7-.08,9.95-2.31,16.83-11.45,16.26-21.69Z"/>
  </g>
</svg>