<?xml version="1.0" encoding="UTF-8"?>
<svg id="Layer_1" data-name="Layer 1" xmlns="http://www.w3.org/2000/svg" viewBox="0 0 599.21 600">
  <defs>
    <style>
      .cls-1 {
        fill: #fff;
      }
    </style>
  </defs>
  <g id="Layer_38" data-name="Layer 38">
    <path class="cls-1" d="M299.9,39.79l209.66,186.96,32.6,29.19c-20.88,.05-37.85,17.06-37.85,37.94v271.1h-112.22v-156.55c0-20.92-17.02-37.94-37.94-37.94h-107.13c-20.92,0-37.94,17.02-37.94,37.94v156.55H94.91V293.5c0-20.48-16.31-37.23-36.63-37.92l32.39-28.73,.05-.04,.05-.04L299.9,39.79m-.01-39.79c-4.99,0-9.98,1.78-13.95,5.33L67.44,200.67,6.89,254.38c-3.94,3.64-6.38,8.61-6.84,13.95-.73,10.49,6.34,19.93,16.6,22.18,0,.23,4.65,.31,10.9,.31,9.74,0,23.38-.19,29.37-.27,.01,0,.03,0,.04,0,1.62,0,2.94,1.32,2.94,2.94v282.61c0,13.19,10.69,23.87,23.87,23.87H222.46c.24,0,.47,.01,.71,.01,11.24,0,20.53-8.92,20.9-20.23,0-.24,.01-.47,.01-.71v-170.63c0-1.63,1.32-2.94,2.94-2.94h107.13c1.63,0,2.94,1.32,2.94,2.94v167.68c0,13.19,10.69,23.87,23.87,23.87h134.47c13.18,0,23.87-10.69,23.87-23.87V293.88c0-1.63,1.32-2.94,2.94-2.94h39.96c.23,0,.47-.02,.7-.08,9.95-2.31,16.83-11.45,16.26-21.69-.06-5.57-2.31-10.88-6.28-14.79l-60-53.72L313.84,5.33c-3.97-3.55-8.96-5.33-13.95-5.33h0Z"/>
  </g>
</svg>