<?xml version="1.0" encoding="UTF-8"?>
<svg id="Layer_1" data-name="Layer 1" xmlns="http://www.w3.org/2000/svg" viewBox="0 0 597.63 600">
  <defs>
    <style>
      .cls-1 {
        fill: #fff;
      }
    </style>
  </defs>
  <path class="cls-1" d="M440.33,35c31.72,0,61.84,14.56,84.77,40.97l.07,.09c24.16,27.83,37.47,65.13,37.46,105.05,0,39.91-13.33,77.21-37.5,105.03l-30.31,34.88-196.01,225.62L102.8,321.01l-30.31-34.88c-24.18-27.83-37.49-65.14-37.49-105.06s13.31-77.24,37.49-105.06c22.96-26.43,53.07-40.98,84.8-40.98s61.84,14.55,84.79,40.98l30.31,34.88c6.65,7.65,16.29,12.05,26.42,12.05s19.77-4.39,26.42-12.05l30.31-34.88h0s.05-.05,.05-.05c22.95-26.4,53.05-40.94,84.75-40.94m0-35c-40.23,0-80.46,17.66-111.16,52.98-.02,.02-.03,.04-.05,.06l-30.31,34.88-30.31-34.88C237.79,17.69,197.54,.02,157.28,.02S76.78,17.69,46.07,53.04c-61.42,70.7-61.42,185.33,0,256.04l30.31,34.88,222.43,256.04,222.43-256.04,30.31-34.88c61.42-70.67,61.45-185.27,.05-255.98-.02-.02-.03-.04-.05-.06C520.84,17.68,480.58,0,440.33,0h0Z"/>
</svg>