<?xml version="1.0" encoding="UTF-8"?>
<svg id="Layer_1" data-name="Layer 1" xmlns="http://www.w3.org/2000/svg" viewBox="0 0 599.6 411.82">
  <defs>
    <style>
      .cls-1 {
        fill: none;
        stroke: #fff;
        stroke-linecap: round;
        stroke-linejoin: round;
        stroke-width: 12px;
      }
    </style>
  </defs>
  <polygon class="cls-1" points="258.31 6 118.14 120.24 6 120.24 6 291.59 118.14 291.59 258.31 405.82 258.31 6"/>
  <path class="cls-1" d="M361.03,93.21c15.86,10.89,28.1,26.22,39.37,41.82,8.73,12.08,17.19,24.79,20.96,39.21,2.13,8.14,2.7,16.6,2.67,25.01-.12,29.24-7.89,58.93-25.17,82.52-10.26,14.01-23.52,25.49-36.66,36.85"/>
  <path class="cls-1" d="M512.49,61.05c20.42,14.02,36.17,33.76,50.68,53.84,11.24,15.56,22.13,31.91,26.98,50.47,2.74,10.47,3.48,21.38,3.44,32.2-.16,37.64-10.16,75.87-32.4,106.23-13.21,18.03-30.28,32.82-47.2,47.43"/>
</svg>